<svg width="64" height="64" fill="none" xmlns="http://www.w3.org/2000/svg"><path d="M27.5 58.125h-16a.5.5 0 010-1h16a.5.5 0 010 1zM34 31H15.799a4.304 4.304 0 01-4.299-4.299V16.299A4.304 4.304 0 0115.799 12H34a.5.5 0 01.5.5v18a.5.5 0 01-.5.5zM15.799 13a3.302 3.302 0 00-3.299 3.299v10.402A3.302 3.302 0 0015.799 30H33.5V13H15.799z" fill="#263238"/><path d="M48 35a.47.47 0 01-.138-.02l-14-4a.5.5 0 01-.362-.48v-18c0-.224.148-.419.362-.48l14-4a.5.5 0 01.638.48v26a.497.497 0 01-.5.5zm-13.5-4.877l13 3.714V9.163l-13 3.714v17.246zM14.833 7.5h-4a.5.5 0 010-1h4a.5.5 0 010 1z" fill="#263238"/><path d="M12.833 9.5a.5.5 0 01-.5-.5V5a.5.5 0 011 0v4a.5.5 0 01-.5.5zm-4 3.5h-4a.5.5 0 010-1h4a.5.5 0 010 1z" fill="#263238"/><path d="M6.833 15a.5.5 0 01-.5-.5v-4a.5.5 0 011 0v4a.5.5 0 01-.5.5z" fill="#263238"/><path d="M3 59h5.5a1 1 0 001-1V40a1 1 0 00-1-1H3a1 1 0 00-1 1v18a1 1 0 001 1z" fill="#40C4FF"/><path d="M8.5 59.5H3c-.827 0-1.5-.673-1.5-1.5V40c0-.827.673-1.5 1.5-1.5h5.5c.827 0 1.5.673 1.5 1.5v18c0 .827-.673 1.5-1.5 1.5zM3 39.5c-.275 0-.5.225-.5.5v18c0 .275.225.5.5.5h5.5c.275 0 .5-.225.5-.5V40c0-.275-.225-.5-.5-.5H3zM21.5 48c-1.654 0-3-1.346-3-3v-2.75a.5.5 0 011 0V45c0 1.103.897 2 2 2s2-.897 2-2v-5c0-1.103-.897-2-2-2h-.574a9.47 9.47 0 00-3.528.68l-5.712 2.284a.5.5 0 01-.371-.927l5.712-2.285A10.45 10.45 0 0120.926 37h.574c1.654 0 3 1.346 3 3v5c0 1.654-1.346 3-3 3zM27 36a.5.5 0 01-.5-.5V31h-7v4.5a.5.5 0 01-1 0v-5a.5.5 0 01.5-.5h8a.5.5 0 01.5.5v5a.5.5 0 01-.5.5z" fill="#263238"/><path d="M52 36.5h-3a1 1 0 01-1-1v-28a1 1 0 011-1h3a1 1 0 011 1v28a1 1 0 01-1 1z" fill="#75C422"/><path d="M52 37h-3c-.827 0-1.5-.673-1.5-1.5v-28c0-.827.673-1.5 1.5-1.5h3c.827 0 1.5.673 1.5 1.5v28c0 .827-.673 1.5-1.5 1.5zM49 7c-.275 0-.5.225-.5.5v28c0 .275.225.5.5.5h3c.275 0 .5-.225.5-.5v-28c0-.275-.225-.5-.5-.5h-3zm13 15h-6a.5.5 0 010-1h6a.5.5 0 010 1zm-6-5a.5.5 0 01-.299-.9l4-3a.501.501 0 01.599.801l-4 3A.502.502 0 0156 17zm4 13a.496.496 0 01-.3-.1l-4-3a.5.5 0 01.599-.801l4 3A.5.5 0 0160 30z" fill="#263238"/><path d="M50.5 57.5a7.5 7.5 0 100-15 7.5 7.5 0 000 15z" fill="#40C4FF"/><path d="M49.263 52.828a.502.502 0 01-.354-.146l-2.828-2.828a.5.5 0 01.707-.707l2.475 2.475 4.949-4.949a.5.5 0 01.707.707l-5.303 5.303a.501.501 0 01-.353.145zM29 58h-3.5c-1.654 0-3-1.346-3-3s1.346-3 3-3H29c1.654 0 3 1.346 3 3s-1.346 3-3 3zm-3.5-5c-1.103 0-2 .897-2 2s.897 2 2 2H29c1.103 0 2-.897 2-2s-.897-2-2-2h-3.5z" fill="#263238"/><path d="M31 53h-5.5c-1.654 0-3-1.346-3-3s1.346-3 3-3H31c1.654 0 3 1.346 3 3s-1.346 3-3 3zm-5.5-5c-1.103 0-2 .897-2 2s.897 2 2 2H31c1.103 0 2-.897 2-2s-.897-2-2-2h-5.5zm5.5-5h-5.5a2.98 2.98 0 01-1.802-.612.5.5 0 01-.198-.399V40c0-.426-.139-.836-.4-1.188a.5.5 0 01-.001-.598A2.971 2.971 0 0125.5 37H31c1.654 0 3 1.346 3 3s-1.346 3-3 3zm-6.5-1.277c.308.182.649.277 1 .277H31c1.103 0 2-.897 2-2s-.897-2-2-2h-5.5c-.52 0-1.006.2-1.376.559.247.442.376.934.376 1.441v1.723z" fill="#263238"/><path d="M32 48h-6.5a2.97 2.97 0 01-2.401-1.215.5.5 0 01.001-.598c.262-.352.4-.762.4-1.188v-1.988c0-.157.073-.305.198-.399A2.98 2.98 0 0125.5 42H32c1.654 0 3 1.346 3 3s-1.346 3-3 3zm-7.876-1.559c.37.359.856.559 1.376.559H32c1.103 0 2-.897 2-2s-.897-2-2-2h-6.5c-.351 0-.692.096-1 .277V45c0 .507-.129.999-.376 1.441z" fill="#263238"/></svg>