<svg width="64" height="64" fill="none" xmlns="http://www.w3.org/2000/svg"><path d="M32 46.5c-7.133 0-13.526-3.865-17.634-7.107-4.43-3.497-7.146-6.939-7.26-7.084a.5.5 0 010-.617c.113-.145 2.83-3.587 7.26-7.084C18.474 21.365 24.867 17.5 32 17.5c7.133 0 13.526 3.865 17.634 7.107 4.43 3.497 7.146 6.939 7.26 7.084a.5.5 0 010 .617c-.113.145-2.83 3.587-7.26 7.084C45.526 42.635 39.133 46.5 32 46.5zM8.146 32C9.854 34.042 19.983 45.5 32 45.5c12.025 0 22.146-11.457 23.854-13.5C54.146 29.958 44.018 18.5 32 18.5 19.975 18.5 9.854 29.957 8.146 32z" fill="#263238"/><path d="M32 46.5c-7.995 0-14.5-6.505-14.5-14.5S24.005 17.5 32 17.5 46.5 24.005 46.5 32 39.995 46.5 32 46.5zm0-28c-7.444 0-13.5 6.056-13.5 13.5S24.556 45.5 32 45.5 45.5 39.444 45.5 32 39.444 18.5 32 18.5z" fill="#263238"/><path d="M32 43c6.075 0 11-4.925 11-11s-4.925-11-11-11-11 4.925-11 11 4.925 11 11 11z" fill="#40C4FF"/><path d="M32 43.5c-6.341 0-11.5-5.159-11.5-11.5S25.659 20.5 32 20.5 43.5 25.659 43.5 32 38.341 43.5 32 43.5zm0-22c-5.79 0-10.5 4.71-10.5 10.5S26.21 42.5 32 42.5 42.5 37.79 42.5 32 37.79 21.5 32 21.5z" fill="#263238"/><path d="M38.496 32.788a.5.5 0 01-.5-.5v-3.5h-3.5a.5.5 0 010-1h4a.5.5 0 01.5.5v4a.5.5 0 01-.5.5zM4 32.5a.5.5 0 01-.5-.5C3.5 16.285 16.285 3.5 32 3.5a.5.5 0 010 1C16.836 4.5 4.5 16.837 4.5 32a.5.5 0 01-.5.5zm31-28h-1a.5.5 0 010-1h1a.5.5 0 010 1zm-3 56a.5.5 0 010-1c15.163 0 27.5-12.337 27.5-27.5a.5.5 0 011 0c0 15.715-12.785 28.5-28.5 28.5z" fill="#263238"/><path d="M32 56.5c-12.039 0-22.201-8.609-24.165-20.472a.5.5 0 01.987-.164C10.705 47.242 20.453 55.5 32 55.5c11.548 0 21.296-8.258 23.179-19.637a.5.5 0 01.986.164C54.202 47.89 44.039 56.5 32 56.5zm23.671-27.945a.5.5 0 01-.492-.418C53.296 16.758 43.548 8.5 32 8.5c-11.547 0-21.295 8.258-23.178 19.636a.5.5 0 11-.987-.164C9.799 16.109 19.961 7.5 32 7.5s22.202 8.61 24.165 20.473a.5.5 0 01-.494.582zM53 6.5h-4a.5.5 0 010-1h4a.5.5 0 010 1z" fill="#263238"/><path d="M51 8.5a.5.5 0 01-.5-.5V4a.5.5 0 011 0v4a.5.5 0 01-.5.5zm9 4.5h-4a.5.5 0 010-1h4a.5.5 0 010 1z" fill="#263238"/><path d="M58 15a.5.5 0 01-.5-.5v-4a.5.5 0 011 0v4a.5.5 0 01-.5.5z" fill="#263238"/></svg>