<svg width="64" height="64" fill="none" xmlns="http://www.w3.org/2000/svg"><path d="M26 57a.5.5 0 01-.5-.5V53a.5.5 0 011 0v3.5a.5.5 0 01-.5.5zm12 0a.5.5 0 01-.5-.5V53a.5.5 0 011 0v3.5a.5.5 0 01-.5.5zm4 6H22c-.827 0-1.5-.673-1.5-1.5v-2c0-.827.673-1.5 1.5-1.5h20c.827 0 1.5.673 1.5 1.5v2c0 .827-.673 1.5-1.5 1.5zm-20-4a.5.5 0 00-.5.5v2a.5.5 0 00.5.5h20a.5.5 0 00.5-.5v-2a.5.5 0 00-.5-.5H22zm40-12.5H2a.5.5 0 010-1h60a.5.5 0 010 1z" fill="#263238"/><path d="M57 51.5H7A5.506 5.506 0 011.5 46V14c0-3.033 2.467-5.5 5.5-5.5h13a.5.5 0 010 1H7A4.505 4.505 0 002.5 14v32c0 2.481 2.019 4.5 4.5 4.5h50c2.481 0 4.5-2.019 4.5-4.5V14c0-2.481-2.019-4.5-4.5-4.5H44a.5.5 0 010-1h13c3.033 0 5.5 2.467 5.5 5.5v32c0 3.033-2.467 5.5-5.5 5.5z" fill="#263238"/><path d="M62 14.5H43.24a.5.5 0 010-1H62a.5.5 0 010 1zm-41.24 0H2a.5.5 0 010-1h18.76a.5.5 0 010 1z" fill="#263238"/><path d="M39.5 1.5h-15A2.5 2.5 0 0022 4v7.5a2.5 2.5 0 002.5 2.5H27v2.865a1 1 0 001.64.768L33 14h6.5a2.5 2.5 0 002.5-2.5V4a2.5 2.5 0 00-2.5-2.5z" fill="#75C422"/><path d="M28.003 18.367a1.5 1.5 0 01-.64-.144 1.487 1.487 0 01-.864-1.358V14.5h-2c-1.654 0-3-1.346-3-3V4c0-1.654 1.346-3 3-3h15c1.654 0 3 1.346 3 3v7.5c0 1.654-1.346 3-3 3H33.18l-4.221 3.517c-.276.231-.613.35-.956.35zM24.5 2c-1.103 0-2 .897-2 2v7.5c0 1.103.897 2 2 2H27a.5.5 0 01.5.5v2.865c0 .295.22.421.288.453.067.032.305.12.532-.069l4.36-3.633A.5.5 0 0133 13.5h6.5c1.103 0 2-.897 2-2V4c0-1.103-.897-2-2-2h-15z" fill="#263238"/><path d="M26.902 9.25c-.827 0-1.5-.673-1.5-1.5s.673-1.5 1.5-1.5 1.5.673 1.5 1.5-.673 1.5-1.5 1.5zm0-2a.5.5 0 100 1 .5.5 0 000-1zm5 2c-.827 0-1.5-.673-1.5-1.5s.673-1.5 1.5-1.5 1.5.673 1.5 1.5-.673 1.5-1.5 1.5zm0-2a.5.5 0 100 1 .5.5 0 000-1zm5 2c-.827 0-1.5-.673-1.5-1.5s.673-1.5 1.5-1.5 1.5.673 1.5 1.5-.673 1.5-1.5 1.5zm0-2a.5.5 0 100 1 .5.5 0 000-1z" fill="#263238"/><path d="M33 36.965a1 1 0 001 1h20a1 1 0 001-1v-14a1 1 0 00-1-1H34a1 1 0 00-1 1v14z" fill="#40C4FF"/><path d="M54 38.465H34c-.827 0-1.5-.673-1.5-1.5v-14c0-.827.673-1.5 1.5-1.5h20c.827 0 1.5.673 1.5 1.5v14c0 .827-.673 1.5-1.5 1.5zm-20-16a.5.5 0 00-.5.5v14a.5.5 0 00.5.5h20a.5.5 0 00.5-.5v-14a.5.5 0 00-.5-.5H34z" fill="#263238"/><path d="M51 26.965H37a.5.5 0 010-1h14a.5.5 0 010 1zm0 3.5H37a.5.5 0 010-1h14a.5.5 0 010 1zm-7 3.5h-7a.5.5 0 010-1h7a.5.5 0 010 1zM19.004 30a6.508 6.508 0 01-6.5-6.5c0-3.584 2.916-6.5 6.5-6.5s6.5 2.916 6.5 6.5-2.916 6.5-6.5 6.5zm0-12a5.506 5.506 0 00-5.5 5.5c0 3.033 2.467 5.5 5.5 5.5s5.5-2.467 5.5-5.5-2.467-5.5-5.5-5.5z" fill="#263238"/><path d="M23.165 20.03l.447-.372a6 6 0 00-10.607 3.841h.566c3.505.001 6.9-1.227 9.594-3.469z" fill="#75C422"/><path d="M13.571 24h-.566a.5.5 0 01-.5-.5c0-3.584 2.916-6.5 6.5-6.5 1.932 0 3.751.852 4.991 2.338a.5.5 0 01-.064.705l-.447.372A15.528 15.528 0 0113.571 24zm-.044-1h.044c3.382 0 6.675-1.191 9.274-3.354l.044-.037A5.483 5.483 0 0019.004 18a5.507 5.507 0 00-5.477 5zm15.477 23.5H9a.5.5 0 01-.5-.5v-8.909a5.47 5.47 0 013.042-4.92l4.231-2.113a.5.5 0 11.447.895l-4.231 2.113A4.476 4.476 0 009.5 37.092V45.5h19.004v-8.41a4.476 4.476 0 00-2.487-4.025l-4.245-2.122a.5.5 0 01.447-.895l4.245 2.122a5.47 5.47 0 013.04 4.919V46a.5.5 0 01-.5.5z" fill="#263238"/><path d="M25.004 46.5h-12a.5.5 0 01-.5-.5v-6.5a.5.5 0 011 0v6h11v-6a.5.5 0 011 0V46a.5.5 0 01-.5.5zM19 35.467a.5.5 0 01-.415-.221l-3.004-4.462a.498.498 0 01-.085-.279l-.001-1.82a.5.5 0 01.751-.433 5.552 5.552 0 005.499.011.502.502 0 01.75.433l.001 1.798a.505.505 0 01-.084.279l-2.996 4.473a.502.502 0 01-.416.221zm-2.504-5.115l2.503 3.718 2.497-3.728-.001-.842a6.538 6.538 0 01-5-.008l.001.86z" fill="#263238"/><path d="M19 39.467a.5.5 0 01-.5-.5v-4a.5.5 0 011 0v4a.5.5 0 01-.5.5zM56.5 57H49a.5.5 0 010-1h7.5a.5.5 0 010 1zm3 0h-1a.5.5 0 010-1h1a.5.5 0 010 1zM15 57H7.5a.5.5 0 010-1H15a.5.5 0 010 1zm-9.5 0h-1a.5.5 0 010-1h1a.5.5 0 110 1z" fill="#263238"/></svg>