<svg width="64" height="64" viewBox="0 0 64 64" fill="none" xmlns="http://www.w3.org/2000/svg">
<path d="M27.5 58.125H11.5C11.224 58.125 11 57.901 11 57.625C11 57.349 11.224 57.125 11.5 57.125H27.5C27.776 57.125 28 57.349 28 57.625C28 57.901 27.776 58.125 27.5 58.125Z" fill="#263238"/>
<path d="M34 31H15.799C13.429 31 11.5 29.071 11.5 26.701V16.299C11.5 13.929 13.429 12 15.799 12H34C34.276 12 34.5 12.224 34.5 12.5V30.5C34.5 30.776 34.276 31 34 31ZM15.799 13C13.98 13 12.5 14.479 12.5 16.299V26.701C12.5 28.52 13.979 30 15.799 30H33.5V13H15.799Z" fill="#263238"/>
<path d="M48 35C47.954 35 47.908 34.994 47.862 34.98L33.862 30.98C33.648 30.918 33.5 30.723 33.5 30.5V12.5C33.5 12.276 33.648 12.081 33.862 12.02L47.862 8.02002C48.015 7.97402 48.174 8.00602 48.3 8.10102C48.426 8.19602 48.5 8.34302 48.5 8.50002V34.5C48.5 34.657 48.427 34.805 48.301 34.899C48.213 34.966 48.107 35 48 35ZM34.5 30.123L47.5 33.837V9.16302L34.5 12.877V30.123Z" fill="#263238"/>
<path d="M14.833 7.5H10.833C10.557 7.5 10.333 7.276 10.333 7C10.333 6.724 10.557 6.5 10.833 6.5H14.833C15.109 6.5 15.333 6.724 15.333 7C15.333 7.276 15.109 7.5 14.833 7.5Z" fill="#263238"/>
<path d="M12.833 9.5C12.557 9.5 12.333 9.276 12.333 9V5C12.333 4.724 12.557 4.5 12.833 4.5C13.109 4.5 13.333 4.724 13.333 5V9C13.333 9.276 13.109 9.5 12.833 9.5Z" fill="#263238"/>
<path d="M8.83301 13H4.83301C4.55701 13 4.33301 12.776 4.33301 12.5C4.33301 12.224 4.55701 12 4.83301 12H8.83301C9.10901 12 9.33301 12.224 9.33301 12.5C9.33301 12.776 9.10901 13 8.83301 13Z" fill="#263238"/>
<path d="M6.83301 15C6.55701 15 6.33301 14.776 6.33301 14.5V10.5C6.33301 10.224 6.55701 10 6.83301 10C7.10901 10 7.33301 10.224 7.33301 10.5V14.5C7.33301 14.776 7.10901 15 6.83301 15Z" fill="#263238"/>
<path d="M3 59H8.5C9.052 59 9.5 58.552 9.5 58V40C9.5 39.448 9.052 39 8.5 39H3C2.448 39 2 39.448 2 40V58C2 58.552 2.448 59 3 59Z" fill="#40C4FF"/>
<path d="M8.5 59.5H3C2.173 59.5 1.5 58.827 1.5 58V40C1.5 39.173 2.173 38.5 3 38.5H8.5C9.327 38.5 10 39.173 10 40V58C10 58.827 9.327 59.5 8.5 59.5ZM3 39.5C2.725 39.5 2.5 39.725 2.5 40V58C2.5 58.275 2.725 58.5 3 58.5H8.5C8.775 58.5 9 58.275 9 58V40C9 39.725 8.775 39.5 8.5 39.5H3Z" fill="#263238"/>
<path d="M21.5 48C19.846 48 18.5 46.654 18.5 45V42.25C18.5 41.974 18.724 41.75 19 41.75C19.276 41.75 19.5 41.974 19.5 42.25V45C19.5 46.103 20.397 47 21.5 47C22.603 47 23.5 46.103 23.5 45V40C23.5 38.897 22.603 38 21.5 38H20.926C19.714 38 18.527 38.229 17.398 38.68L11.686 40.964C11.43 41.066 11.139 40.942 11.037 40.686C10.935 40.43 11.058 40.139 11.315 40.037L17.027 37.752C18.274 37.253 19.586 37 20.926 37H21.5C23.154 37 24.5 38.346 24.5 40V45C24.5 46.654 23.154 48 21.5 48Z" fill="#263238"/>
<path d="M27 36C26.724 36 26.5 35.776 26.5 35.5V31H19.5V35.5C19.5 35.776 19.276 36 19 36C18.724 36 18.5 35.776 18.5 35.5V30.5C18.5 30.224 18.724 30 19 30H27C27.276 30 27.5 30.224 27.5 30.5V35.5C27.5 35.776 27.276 36 27 36Z" fill="#263238"/>
<path d="M52 36.5H49C48.448 36.5 48 36.052 48 35.5V7.5C48 6.948 48.448 6.5 49 6.5H52C52.552 6.5 53 6.948 53 7.5V35.5C53 36.052 52.552 36.5 52 36.5Z" fill="#75C422"/>
<path d="M52 37H49C48.173 37 47.5 36.327 47.5 35.5V7.5C47.5 6.673 48.173 6 49 6H52C52.827 6 53.5 6.673 53.5 7.5V35.5C53.5 36.327 52.827 37 52 37ZM49 7C48.725 7 48.5 7.225 48.5 7.5V35.5C48.5 35.775 48.725 36 49 36H52C52.275 36 52.5 35.775 52.5 35.5V7.5C52.5 7.225 52.275 7 52 7H49Z" fill="#263238"/>
<path d="M62 22H56C55.724 22 55.5 21.776 55.5 21.5C55.5 21.224 55.724 21 56 21H62C62.276 21 62.5 21.224 62.5 21.5C62.5 21.776 62.276 22 62 22Z" fill="#263238"/>
<path d="M56 17C55.849 17 55.698 16.931 55.6 16.8C55.435 16.579 55.48 16.266 55.701 16.1L59.701 13.1C59.921 12.935 60.234 12.98 60.401 13.201C60.566 13.422 60.521 13.735 60.3 13.901L56.3 16.901C56.21 16.968 56.104 17 56 17Z" fill="#263238"/>
<path d="M60 30C59.896 30 59.79 29.968 59.7 29.9L55.7 26.9C55.479 26.734 55.434 26.421 55.599 26.2C55.766 25.979 56.079 25.934 56.299 26.099L60.299 29.099C60.52 29.265 60.565 29.578 60.4 29.799C60.302 29.931 60.151 30 60 30Z" fill="#263238"/>
<path d="M50.5 57.5C54.6421 57.5 58 54.1421 58 50C58 45.8579 54.6421 42.5 50.5 42.5C46.3579 42.5 43 45.8579 43 50C43 54.1421 46.3579 57.5 50.5 57.5Z" fill="#40C4FF"/>
<path d="M49.2629 52.828C49.1349 52.828 49.0069 52.779 48.9089 52.682L46.0809 49.854C45.8859 49.659 45.8859 49.342 46.0809 49.147C46.2759 48.952 46.5929 48.952 46.7879 49.147L49.2629 51.622L54.2119 46.673C54.4069 46.478 54.7239 46.478 54.9189 46.673C55.1139 46.868 55.1139 47.185 54.9189 47.38L49.6159 52.683C49.5189 52.779 49.3909 52.828 49.2629 52.828Z" fill="#263238"/>
<path d="M29 58H25.5C23.846 58 22.5 56.654 22.5 55C22.5 53.346 23.846 52 25.5 52H29C30.654 52 32 53.346 32 55C32 56.654 30.654 58 29 58ZM25.5 53C24.397 53 23.5 53.897 23.5 55C23.5 56.103 24.397 57 25.5 57H29C30.103 57 31 56.103 31 55C31 53.897 30.103 53 29 53H25.5Z" fill="#263238"/>
<path d="M31 53H25.5C23.846 53 22.5 51.654 22.5 50C22.5 48.346 23.846 47 25.5 47H31C32.654 47 34 48.346 34 50C34 51.654 32.654 53 31 53ZM25.5 48C24.397 48 23.5 48.897 23.5 50C23.5 51.103 24.397 52 25.5 52H31C32.103 52 33 51.103 33 50C33 48.897 32.103 48 31 48H25.5Z" fill="#263238"/>
<path d="M31 43H25.5C24.853 43 24.229 42.788 23.698 42.388C23.573 42.293 23.5 42.146 23.5 41.989V40C23.5 39.574 23.361 39.164 23.1 38.812C22.967 38.635 22.967 38.392 23.099 38.214C23.674 37.442 24.549 37 25.5 37H31C32.654 37 34 38.346 34 40C34 41.654 32.654 43 31 43ZM24.5 41.723C24.808 41.905 25.149 42 25.5 42H31C32.103 42 33 41.103 33 40C33 38.897 32.103 38 31 38H25.5C24.98 38 24.494 38.2 24.124 38.559C24.371 39.001 24.5 39.493 24.5 40V41.723Z" fill="#263238"/>
<path d="M32 48H25.5C24.549 48 23.674 47.558 23.099 46.785C22.967 46.607 22.967 46.364 23.1 46.187C23.362 45.835 23.5 45.425 23.5 44.999V43.011C23.5 42.854 23.573 42.706 23.698 42.612C24.229 42.212 24.853 42 25.5 42H32C33.654 42 35 43.346 35 45C35 46.654 33.654 48 32 48ZM24.124 46.441C24.494 46.8 24.98 47 25.5 47H32C33.103 47 34 46.103 34 45C34 43.897 33.103 43 32 43H25.5C25.149 43 24.808 43.096 24.5 43.277V45C24.5 45.507 24.371 45.999 24.124 46.441Z" fill="#263238"/>
</svg>
