<svg width="64" height="64" viewBox="0 0 64 64" fill="none" xmlns="http://www.w3.org/2000/svg">
<path d="M32 46.5C24.867 46.5 18.474 42.635 14.366 39.393C9.93601 35.896 7.22001 32.454 7.10601 32.309C6.96401 32.127 6.96401 31.873 7.10601 31.692C7.21901 31.547 9.93601 28.105 14.366 24.608C18.474 21.365 24.867 17.5 32 17.5C39.133 17.5 45.526 21.365 49.634 24.607C54.064 28.104 56.78 31.546 56.894 31.691C57.036 31.873 57.036 32.127 56.894 32.308C56.781 32.453 54.064 35.895 49.634 39.392C45.526 42.635 39.133 46.5 32 46.5ZM8.14601 32C9.85401 34.042 19.983 45.5 32 45.5C44.025 45.5 54.146 34.043 55.854 32C54.146 29.958 44.018 18.5 32 18.5C19.975 18.5 9.85401 29.957 8.14601 32Z" fill="#263238"/>
<path d="M32 46.5C24.005 46.5 17.5 39.995 17.5 32C17.5 24.005 24.005 17.5 32 17.5C39.995 17.5 46.5 24.005 46.5 32C46.5 39.995 39.995 46.5 32 46.5ZM32 18.5C24.556 18.5 18.5 24.556 18.5 32C18.5 39.444 24.556 45.5 32 45.5C39.444 45.5 45.5 39.444 45.5 32C45.5 24.556 39.444 18.5 32 18.5Z" fill="#263238"/>
<path d="M32 43C38.0751 43 43 38.0751 43 32C43 25.9249 38.0751 21 32 21C25.9249 21 21 25.9249 21 32C21 38.0751 25.9249 43 32 43Z" fill="#40C4FF"/>
<path d="M32 43.5C25.659 43.5 20.5 38.341 20.5 32C20.5 25.659 25.659 20.5 32 20.5C38.341 20.5 43.5 25.659 43.5 32C43.5 38.341 38.341 43.5 32 43.5ZM32 21.5C26.21 21.5 21.5 26.21 21.5 32C21.5 37.79 26.21 42.5 32 42.5C37.79 42.5 42.5 37.79 42.5 32C42.5 26.21 37.79 21.5 32 21.5Z" fill="#263238"/>
<path d="M38.496 32.788C38.22 32.788 37.996 32.564 37.996 32.288V28.788H34.496C34.22 28.788 33.996 28.564 33.996 28.288C33.996 28.012 34.22 27.788 34.496 27.788H38.496C38.772 27.788 38.996 28.012 38.996 28.288V32.288C38.996 32.564 38.772 32.788 38.496 32.788Z" fill="#263238"/>
<path d="M4 32.5C3.724 32.5 3.5 32.276 3.5 32C3.5 16.285 16.285 3.5 32 3.5C32.276 3.5 32.5 3.724 32.5 4C32.5 4.276 32.276 4.5 32 4.5C16.836 4.5 4.5 16.837 4.5 32C4.5 32.276 4.276 32.5 4 32.5Z" fill="#263238"/>
<path d="M35 4.5H34C33.724 4.5 33.5 4.276 33.5 4C33.5 3.724 33.724 3.5 34 3.5H35C35.276 3.5 35.5 3.724 35.5 4C35.5 4.276 35.276 4.5 35 4.5Z" fill="#263238"/>
<path d="M32 60.5C31.724 60.5 31.5 60.276 31.5 60C31.5 59.724 31.724 59.5 32 59.5C47.163 59.5 59.5 47.163 59.5 32C59.5 31.724 59.724 31.5 60 31.5C60.276 31.5 60.5 31.724 60.5 32C60.5 47.715 47.715 60.5 32 60.5Z" fill="#263238"/>
<path d="M32 56.5C19.961 56.5 9.79902 47.891 7.83502 36.028C7.79002 35.756 7.97402 35.498 8.24702 35.453C8.52002 35.403 8.77702 35.592 8.82202 35.864C10.705 47.242 20.453 55.5 32 55.5C43.548 55.5 53.296 47.242 55.179 35.863C55.223 35.591 55.476 35.405 55.754 35.452C56.026 35.497 56.21 35.755 56.165 36.027C54.202 47.89 44.039 56.5 32 56.5Z" fill="#263238"/>
<path d="M55.671 28.555C55.431 28.555 55.219 28.381 55.179 28.137C53.296 16.758 43.548 8.5 32 8.5C20.453 8.5 10.705 16.758 8.82199 28.136C8.77699 28.407 8.51899 28.594 8.24699 28.547C7.97499 28.502 7.78999 28.244 7.83499 27.972C9.79899 16.109 19.961 7.5 32 7.5C44.039 7.5 54.202 16.11 56.165 27.973C56.21 28.245 56.026 28.503 55.754 28.548C55.726 28.553 55.698 28.555 55.671 28.555Z" fill="#263238"/>
<path d="M53 6.5H49C48.724 6.5 48.5 6.276 48.5 6C48.5 5.724 48.724 5.5 49 5.5H53C53.276 5.5 53.5 5.724 53.5 6C53.5 6.276 53.276 6.5 53 6.5Z" fill="#263238"/>
<path d="M51 8.5C50.724 8.5 50.5 8.276 50.5 8V4C50.5 3.724 50.724 3.5 51 3.5C51.276 3.5 51.5 3.724 51.5 4V8C51.5 8.276 51.276 8.5 51 8.5Z" fill="#263238"/>
<path d="M60 13H56C55.724 13 55.5 12.776 55.5 12.5C55.5 12.224 55.724 12 56 12H60C60.276 12 60.5 12.224 60.5 12.5C60.5 12.776 60.276 13 60 13Z" fill="#263238"/>
<path d="M58 15C57.724 15 57.5 14.776 57.5 14.5V10.5C57.5 10.224 57.724 10 58 10C58.276 10 58.5 10.224 58.5 10.5V14.5C58.5 14.776 58.276 15 58 15Z" fill="#263238"/>
</svg>
