<svg width="64" height="64" viewBox="0 0 64 64" fill="none" xmlns="http://www.w3.org/2000/svg">
<path d="M26 57C25.724 57 25.5 56.776 25.5 56.5V53C25.5 52.724 25.724 52.5 26 52.5C26.276 52.5 26.5 52.724 26.5 53V56.5C26.5 56.776 26.276 57 26 57Z" fill="#263238"/>
<path d="M38 57C37.724 57 37.5 56.776 37.5 56.5V53C37.5 52.724 37.724 52.5 38 52.5C38.276 52.5 38.5 52.724 38.5 53V56.5C38.5 56.776 38.276 57 38 57Z" fill="#263238"/>
<path d="M42 63H22C21.173 63 20.5 62.327 20.5 61.5V59.5C20.5 58.673 21.173 58 22 58H42C42.827 58 43.5 58.673 43.5 59.5V61.5C43.5 62.327 42.827 63 42 63ZM22 59C21.724 59 21.5 59.224 21.5 59.5V61.5C21.5 61.776 21.724 62 22 62H42C42.276 62 42.5 61.776 42.5 61.5V59.5C42.5 59.224 42.276 59 42 59H22Z" fill="#263238"/>
<path d="M62 46.5H2C1.724 46.5 1.5 46.276 1.5 46C1.5 45.724 1.724 45.5 2 45.5H62C62.276 45.5 62.5 45.724 62.5 46C62.5 46.276 62.276 46.5 62 46.5Z" fill="#263238"/>
<path d="M57 51.5H7C3.967 51.5 1.5 49.033 1.5 46V14C1.5 10.967 3.967 8.5 7 8.5H20C20.276 8.5 20.5 8.724 20.5 9C20.5 9.276 20.276 9.5 20 9.5H7C4.519 9.5 2.5 11.519 2.5 14V46C2.5 48.481 4.519 50.5 7 50.5H57C59.481 50.5 61.5 48.481 61.5 46V14C61.5 11.519 59.481 9.5 57 9.5H44C43.724 9.5 43.5 9.276 43.5 9C43.5 8.724 43.724 8.5 44 8.5H57C60.033 8.5 62.5 10.967 62.5 14V46C62.5 49.033 60.033 51.5 57 51.5Z" fill="#263238"/>
<path d="M62 14.5H43.24C42.964 14.5 42.74 14.276 42.74 14C42.74 13.724 42.964 13.5 43.24 13.5H62C62.276 13.5 62.5 13.724 62.5 14C62.5 14.276 62.276 14.5 62 14.5Z" fill="#263238"/>
<path d="M20.76 14.5H2C1.724 14.5 1.5 14.276 1.5 14C1.5 13.724 1.724 13.5 2 13.5H20.76C21.036 13.5 21.26 13.724 21.26 14C21.26 14.276 21.037 14.5 20.76 14.5Z" fill="#263238"/>
<path d="M39.5 1.5H24.5C23.119 1.5 22 2.619 22 4V11.5C22 12.881 23.119 14 24.5 14H27V16.865C27 17.713 27.989 18.176 28.64 17.633L33 14H39.5C40.881 14 42 12.881 42 11.5V4C42 2.619 40.881 1.5 39.5 1.5Z" fill="#75C422"/>
<path d="M28.003 18.367C27.787 18.367 27.569 18.32 27.363 18.223C26.83 17.973 26.499 17.453 26.499 16.865V14.5H24.499C22.845 14.5 21.499 13.154 21.499 11.5V4C21.499 2.346 22.845 1 24.499 1H39.499C41.153 1 42.499 2.346 42.499 4V11.5C42.499 13.154 41.153 14.5 39.499 14.5H33.18L28.959 18.017C28.683 18.248 28.346 18.367 28.003 18.367ZM24.5 2C23.397 2 22.5 2.897 22.5 4V11.5C22.5 12.603 23.397 13.5 24.5 13.5H27C27.276 13.5 27.5 13.724 27.5 14V16.865C27.5 17.16 27.72 17.286 27.788 17.318C27.855 17.35 28.093 17.438 28.32 17.249L32.68 13.616C32.77 13.541 32.883 13.5 33 13.5H39.5C40.603 13.5 41.5 12.603 41.5 11.5V4C41.5 2.897 40.603 2 39.5 2H24.5Z" fill="#263238"/>
<path d="M26.902 9.25C26.075 9.25 25.402 8.577 25.402 7.75C25.402 6.923 26.075 6.25 26.902 6.25C27.729 6.25 28.402 6.923 28.402 7.75C28.402 8.577 27.729 9.25 26.902 9.25ZM26.902 7.25C26.626 7.25 26.402 7.474 26.402 7.75C26.402 8.026 26.626 8.25 26.902 8.25C27.178 8.25 27.402 8.026 27.402 7.75C27.402 7.474 27.178 7.25 26.902 7.25Z" fill="#263238"/>
<path d="M31.902 9.25C31.075 9.25 30.402 8.577 30.402 7.75C30.402 6.923 31.075 6.25 31.902 6.25C32.729 6.25 33.402 6.923 33.402 7.75C33.402 8.577 32.729 9.25 31.902 9.25ZM31.902 7.25C31.626 7.25 31.402 7.474 31.402 7.75C31.402 8.026 31.626 8.25 31.902 8.25C32.178 8.25 32.402 8.026 32.402 7.75C32.402 7.474 32.178 7.25 31.902 7.25Z" fill="#263238"/>
<path d="M36.902 9.25C36.075 9.25 35.402 8.577 35.402 7.75C35.402 6.923 36.075 6.25 36.902 6.25C37.729 6.25 38.402 6.923 38.402 7.75C38.402 8.577 37.729 9.25 36.902 9.25ZM36.902 7.25C36.626 7.25 36.402 7.474 36.402 7.75C36.402 8.026 36.626 8.25 36.902 8.25C37.178 8.25 37.402 8.026 37.402 7.75C37.402 7.474 37.178 7.25 36.902 7.25Z" fill="#263238"/>
<path d="M33 36.965C33 37.517 33.448 37.965 34 37.965H54C54.552 37.965 55 37.517 55 36.965V22.965C55 22.413 54.552 21.965 54 21.965H34C33.448 21.965 33 22.413 33 22.965V36.965Z" fill="#40C4FF"/>
<path d="M54 38.465H34C33.173 38.465 32.5 37.792 32.5 36.965V22.965C32.5 22.138 33.173 21.465 34 21.465H54C54.827 21.465 55.5 22.138 55.5 22.965V36.965C55.5 37.792 54.827 38.465 54 38.465ZM34 22.465C33.724 22.465 33.5 22.689 33.5 22.965V36.965C33.5 37.241 33.724 37.465 34 37.465H54C54.276 37.465 54.5 37.241 54.5 36.965V22.965C54.5 22.689 54.276 22.465 54 22.465H34Z" fill="#263238"/>
<path d="M51 26.965H37C36.724 26.965 36.5 26.741 36.5 26.465C36.5 26.189 36.724 25.965 37 25.965H51C51.276 25.965 51.5 26.189 51.5 26.465C51.5 26.741 51.276 26.965 51 26.965Z" fill="#263238"/>
<path d="M51 30.465H37C36.724 30.465 36.5 30.241 36.5 29.965C36.5 29.689 36.724 29.465 37 29.465H51C51.276 29.465 51.5 29.689 51.5 29.965C51.5 30.241 51.276 30.465 51 30.465Z" fill="#263238"/>
<path d="M44 33.965H37C36.724 33.965 36.5 33.741 36.5 33.465C36.5 33.189 36.724 32.965 37 32.965H44C44.276 32.965 44.5 33.189 44.5 33.465C44.5 33.741 44.276 33.965 44 33.965Z" fill="#263238"/>
<path d="M19.004 30C15.42 30 12.504 27.084 12.504 23.5C12.504 19.916 15.42 17 19.004 17C22.588 17 25.504 19.916 25.504 23.5C25.504 27.084 22.588 30 19.004 30ZM19.004 18C15.971 18 13.504 20.467 13.504 23.5C13.504 26.533 15.971 29 19.004 29C22.037 29 24.504 26.533 24.504 23.5C24.504 20.467 22.037 18 19.004 18Z" fill="#263238"/>
<path d="M23.165 20.03L23.612 19.658C22.511 18.339 20.857 17.499 19.005 17.499C15.691 17.499 13.005 20.185 13.005 23.499H13.571C17.076 23.5 20.471 22.272 23.165 20.03Z" fill="#75C422"/>
<path d="M13.571 24H13.005C12.729 24 12.505 23.776 12.505 23.5C12.505 19.916 15.421 17 19.005 17C20.937 17 22.756 17.852 23.996 19.338C24.081 19.44 24.122 19.571 24.11 19.704C24.098 19.836 24.034 19.958 23.932 20.043L23.485 20.415C20.707 22.727 17.186 24 13.571 24ZM13.527 23H13.571C16.953 23 20.246 21.809 22.845 19.646L22.889 19.609C21.861 18.581 20.471 18 19.004 18C16.14 18 13.78 20.201 13.527 23Z" fill="#263238"/>
<path d="M29.004 46.5H9C8.724 46.5 8.5 46.276 8.5 46V37.091C8.5 34.993 9.666 33.108 11.542 32.171L15.773 30.058C16.019 29.934 16.321 30.035 16.444 30.282C16.568 30.529 16.467 30.829 16.22 30.953L11.989 33.066C10.454 33.833 9.5 35.376 9.5 37.092V45.5H28.504V37.09C28.504 35.375 27.551 33.832 26.017 33.065L21.772 30.943C21.525 30.819 21.425 30.519 21.548 30.272C21.671 30.025 21.972 29.926 22.219 30.048L26.464 32.17C28.339 33.108 29.504 34.993 29.504 37.089V46C29.504 46.276 29.281 46.5 29.004 46.5Z" fill="#263238"/>
<path d="M25.004 46.5H13.004C12.728 46.5 12.504 46.276 12.504 46V39.5C12.504 39.224 12.728 39 13.004 39C13.28 39 13.504 39.224 13.504 39.5V45.5H24.504V39.5C24.504 39.224 24.728 39 25.004 39C25.28 39 25.504 39.224 25.504 39.5V46C25.504 46.276 25.281 46.5 25.004 46.5Z" fill="#263238"/>
<path d="M19 35.467C18.833 35.467 18.678 35.3839 18.585 35.2459L15.581 30.784C15.525 30.701 15.496 30.604 15.496 30.505L15.495 28.685C15.495 28.506 15.59 28.34 15.745 28.251C15.901 28.162 16.092 28.162 16.246 28.252C17.922 29.228 20.069 29.23 21.745 28.263C21.9 28.174 22.09 28.174 22.245 28.263C22.399 28.352 22.495 28.517 22.495 28.696L22.496 30.494C22.496 30.593 22.467 30.69 22.412 30.773L19.416 35.2459C19.323 35.3839 19.167 35.467 19 35.467ZM16.496 30.352L18.999 34.07L21.496 30.342L21.495 29.5C19.912 30.16 18.078 30.157 16.495 29.492L16.496 30.352Z" fill="#263238"/>
<path d="M19 39.467C18.724 39.467 18.5 39.243 18.5 38.967V34.967C18.5 34.691 18.724 34.467 19 34.467C19.276 34.467 19.5 34.691 19.5 34.967V38.967C19.5 39.244 19.276 39.467 19 39.467Z" fill="#263238"/>
<path d="M56.5 57H49C48.724 57 48.5 56.776 48.5 56.5C48.5 56.224 48.724 56 49 56H56.5C56.776 56 57 56.224 57 56.5C57 56.776 56.776 57 56.5 57Z" fill="#263238"/>
<path d="M59.5 57H58.5C58.224 57 58 56.776 58 56.5C58 56.224 58.224 56 58.5 56H59.5C59.776 56 60 56.224 60 56.5C60 56.776 59.776 57 59.5 57Z" fill="#263238"/>
<path d="M15 57H7.5C7.224 57 7 56.776 7 56.5C7 56.224 7.224 56 7.5 56H15C15.276 56 15.5 56.224 15.5 56.5C15.5 56.776 15.276 57 15 57Z" fill="#263238"/>
<path d="M5.5 57H4.5C4.224 57 4 56.776 4 56.5C4 56.224 4.224 56 4.5 56H5.5C5.776 56 6 56.223 6 56.5C6 56.777 5.776 57 5.5 57Z" fill="#263238"/>
</svg>
